<svg width="10" height="11" viewBox="0 0 10 11" fill="none" xmlns="http://www.w3.org/2000/svg">
<path d="M3.33325 5.06246C3.33325 4.46947 3.37004 3.90211 3.43705 3.375H6.56282C6.62983 3.90211 6.66662 4.46947 6.66662 5.06246C6.66662 5.65545 6.62983 6.22281 6.56282 6.74992H3.43705C3.37004 6.22281 3.33325 5.65545 3.33325 5.06246Z" fill="#000056"/>
<path d="M3.33325 5.06246C3.33325 4.46947 3.37004 3.90211 3.43705 3.375H4.93582C4.93582 3.97926 4.62535 5.0309 4.62535 5.0309L4.24214 6.74992H3.43705C3.37004 6.22281 3.33325 5.65545 3.33325 5.06246Z" fill="#000056"/>
<path d="M2.59741 6.74992C2.53386 6.21433 2.50003 5.64748 2.50003 5.06246C2.50003 4.47744 2.53386 3.91059 2.59741 3.375H0.284511C0.100259 3.9028 0 4.47078 0 5.06246C0 5.65414 0.100259 6.22212 0.284511 6.74992H2.59741Z" fill="#000056"/>
<path d="M0.668945 7.59375H2.72677C2.83187 8.14648 2.97084 8.65179 3.13803 9.09196C3.24997 9.38668 3.37714 9.65886 3.51958 9.89933C2.30757 9.51948 1.2927 8.68545 0.668945 7.59375Z" fill="#000056"/>
<path d="M3.57666 7.59375H6.42336C6.33151 8.03806 6.21671 8.44043 6.08426 8.78906C5.90654 9.25691 5.70511 9.60664 5.50267 9.832C5.30035 10.0573 5.12988 10.1249 5.00001 10.1249C4.87014 10.1249 4.69967 10.0573 4.49735 9.832C4.29491 9.60664 4.09348 9.25691 3.91576 8.78906C3.7833 8.44043 3.6685 8.03806 3.57666 7.59375Z" fill="#000056"/>
<path d="M7.27348 7.59375C7.16839 8.14648 7.02948 8.65179 6.86222 9.09196C6.75031 9.38668 6.62315 9.65886 6.48071 9.89933C7.69273 9.51948 8.70758 8.68545 9.33133 7.59375H7.27348Z" fill="#000056"/>
<path d="M9.71553 6.74992C9.89978 6.22212 10 5.65414 10 5.06246C10 4.47078 9.89978 3.9028 9.71553 3.375H7.40259C7.46617 3.91059 7.50001 4.47744 7.50001 5.06246C7.50001 5.64748 7.46617 6.21433 7.40259 6.74992H9.71553Z" fill="#000056"/>
<path d="M6.08426 1.33588C6.21671 1.68454 6.33151 2.08691 6.42336 2.53119H3.57666C3.6685 2.08691 3.7833 1.68454 3.91576 1.33588C4.09348 0.868004 4.29491 0.518328 4.49735 0.292934C4.69967 0.0676586 4.87014 0 5.00001 0C5.12988 0 5.30035 0.0676586 5.50267 0.292934C5.70511 0.518328 5.90654 0.868004 6.08426 1.33588Z" fill="#000056"/>
<path d="M5.1284 1.50925C5.1284 2.01233 5.1284 2.01233 5.105 2.53119H3.57666C3.6685 2.08691 3.7833 1.68454 3.91576 1.33588C4.09348 0.868004 4.29491 0.518328 4.49735 0.292934C4.69967 0.0676586 4.87014 0 5.00001 0C5.12988 0 5.25002 0 5.50267 0.292934C5.37994 0.503082 5.37994 0.754623 5.1284 1.50925Z" fill="#000056"/>
<path d="M7.27349 2.53118H9.33134C8.70759 1.43945 7.69274 0.60545 6.48071 0.225586C6.62316 0.466049 6.75032 0.738295 6.86223 1.03298C7.02949 1.47311 7.1684 1.97849 7.27349 2.53118Z" fill="#000056"/>
<path d="M0.668945 2.53118H2.72677C2.83187 1.97849 2.97084 1.47311 3.13803 1.03298C3.24997 0.738295 3.37714 0.466049 3.51958 0.225586C2.30757 0.60545 1.2927 1.43945 0.668945 2.53118Z" fill="#000056"/>
</svg>
